<mxfile host="app.diagrams.net" modified="2024-07-10T12:49:58.342Z" agent="Mozilla/5.0 (Macintosh; Intel Mac OS X 10_15_7) AppleWebKit/537.36 (KHTML, like Gecko) Chrome/126.0.0.0 Safari/537.36" etag="PsMGaAt1lYA9WGPAALr9" version="24.6.4" type="github">
  <diagram name="Page-1" id="HYofu469Ok2oPQixLi18">
    <mxGraphModel dx="2440" dy="1366" grid="1" gridSize="10" guides="1" tooltips="1" connect="1" arrows="1" fold="1" page="1" pageScale="1" pageWidth="827" pageHeight="1169" math="0" shadow="0">
      <root>
        <mxCell id="0" />
        <mxCell id="1" parent="0" />
        <mxCell id="WQhL-T7OeGWusMz7-_pZ-56" value="" style="sketch=0;pointerEvents=1;shadow=0;dashed=0;html=1;strokeColor=none;fillColor=#505050;labelPosition=center;verticalLabelPosition=bottom;verticalAlign=top;outlineConnect=0;align=center;shape=mxgraph.office.concepts.folder;" vertex="1" parent="1">
          <mxGeometry x="205" y="191.91" width="30" height="25" as="geometry" />
        </mxCell>
        <mxCell id="WQhL-T7OeGWusMz7-_pZ-57" value="" style="sketch=0;pointerEvents=1;shadow=0;dashed=0;html=1;strokeColor=none;fillColor=#505050;labelPosition=center;verticalLabelPosition=bottom;verticalAlign=top;outlineConnect=0;align=center;shape=mxgraph.office.concepts.folder_open;" vertex="1" parent="1">
          <mxGeometry x="205" y="241.91" width="35" height="20" as="geometry" />
        </mxCell>
        <mxCell id="WQhL-T7OeGWusMz7-_pZ-58" value="" style="sketch=0;pointerEvents=1;shadow=0;dashed=0;html=1;strokeColor=none;labelPosition=center;verticalLabelPosition=bottom;verticalAlign=top;outlineConnect=0;align=center;shape=mxgraph.office.concepts.folder;fillColor=#2072B8;" vertex="1" parent="1">
          <mxGeometry x="205" y="281.91" width="30" height="30" as="geometry" />
        </mxCell>
        <mxCell id="WQhL-T7OeGWusMz7-_pZ-59" value="" style="sketch=0;aspect=fixed;pointerEvents=1;shadow=0;dashed=0;html=1;strokeColor=none;labelPosition=center;verticalLabelPosition=bottom;verticalAlign=top;align=center;fillColor=#00188D;shape=mxgraph.azure.file" vertex="1" parent="1">
          <mxGeometry x="280" y="173.82" width="30" height="31.91" as="geometry" />
        </mxCell>
        <UserObject label="&lt;pre&gt;&lt;font face=&quot;Courier New&quot;&gt;playbook/host_vars/host.name/dir_size.yml&lt;/font&gt;&lt;/pre&gt;" link="playbook/host_vars/host.name/dir_size.yml" id="WQhL-T7OeGWusMz7-_pZ-60">
          <mxCell style="text;whiteSpace=wrap;html=1;" vertex="1" parent="1">
            <mxGeometry x="10" y="120" width="260" height="40" as="geometry" />
          </mxCell>
        </UserObject>
        <mxCell id="WQhL-T7OeGWusMz7-_pZ-63" value="" style="strokeWidth=2;html=1;shape=mxgraph.flowchart.annotation_2;align=left;labelPosition=right;pointerEvents=1;rotation=-180;" vertex="1" parent="1">
          <mxGeometry x="240" y="205.73" width="50" height="100" as="geometry" />
        </mxCell>
        <mxCell id="WQhL-T7OeGWusMz7-_pZ-65" value="" style="endArrow=none;html=1;rounded=0;strokeWidth=3;" edge="1" parent="1">
          <mxGeometry width="50" height="50" relative="1" as="geometry">
            <mxPoint x="250" y="255.14" as="sourcePoint" />
            <mxPoint x="260" y="255.64" as="targetPoint" />
          </mxGeometry>
        </mxCell>
        <mxCell id="WQhL-T7OeGWusMz7-_pZ-66" value="&lt;font color=&quot;#66cc00&quot;&gt;directories_to_monitor:&lt;/font&gt;" style="text;whiteSpace=wrap;html=1;" vertex="1" parent="1">
          <mxGeometry x="110" y="167.64" width="160" height="44.27" as="geometry" />
        </mxCell>
        <mxCell id="WQhL-T7OeGWusMz7-_pZ-67" value="" style="endArrow=none;html=1;rounded=0;strokeWidth=3;" edge="1" parent="1">
          <mxGeometry width="50" height="50" relative="1" as="geometry">
            <mxPoint x="294.41" y="256.91" as="sourcePoint" />
            <mxPoint x="294.41" y="216.91" as="targetPoint" />
            <Array as="points" />
          </mxGeometry>
        </mxCell>
        <mxCell id="WQhL-T7OeGWusMz7-_pZ-68" value="" style="sketch=0;aspect=fixed;pointerEvents=1;shadow=0;dashed=0;html=1;strokeColor=none;labelPosition=center;verticalLabelPosition=bottom;verticalAlign=top;align=center;fillColor=#00188D;shape=mxgraph.azure.script_file" vertex="1" parent="1">
          <mxGeometry x="510" y="38" width="47" height="50" as="geometry" />
        </mxCell>
        <mxCell id="WQhL-T7OeGWusMz7-_pZ-69" value="&lt;code style=&quot;font-family: SFMono-Medium, &amp;quot;SF Mono&amp;quot;, &amp;quot;Segoe UI Mono&amp;quot;, &amp;quot;Roboto Mono&amp;quot;, &amp;quot;Ubuntu Mono&amp;quot;, Menlo, Courier, monospace; color: rgb(23, 43, 77); font-size: 14px; text-align: start; text-wrap: wrap; background-color: rgb(255, 255, 255);&quot;&gt;roles/prometheus_exporter_dir_size/files/text_collector/&lt;/code&gt;&lt;span style=&quot;color: rgb(23, 43, 77); font-family: -apple-system, &amp;quot;system-ui&amp;quot;, &amp;quot;Segoe UI&amp;quot;, Roboto, Oxygen, Ubuntu, &amp;quot;Fira Sans&amp;quot;, &amp;quot;Droid Sans&amp;quot;, &amp;quot;Helvetica Neue&amp;quot;, sans-serif; font-size: 14px; text-align: start; text-wrap: wrap; background-color: rgb(255, 255, 255);&quot;&gt;&amp;nbsp;&lt;/span&gt;" style="text;html=1;align=center;verticalAlign=middle;resizable=0;points=[];autosize=1;strokeColor=none;fillColor=none;" vertex="1" parent="1">
          <mxGeometry x="327" y="8" width="500" height="30" as="geometry" />
        </mxCell>
        <UserObject label="&lt;span style=&quot;color: rgb(23, 43, 77); font-family: SFMono-Medium, &amp;quot;SF Mono&amp;quot;, &amp;quot;Segoe UI Mono&amp;quot;, &amp;quot;Roboto Mono&amp;quot;, &amp;quot;Ubuntu Mono&amp;quot;, Menlo, Courier, monospace; font-size: 14px; font-style: normal; font-variant-ligatures: normal; font-variant-caps: normal; font-weight: 400; letter-spacing: normal; orphans: 2; text-align: start; text-indent: 0px; text-transform: none; widows: 2; word-spacing: 0px; -webkit-text-stroke-width: 0px; white-space: normal; background-color: rgb(255, 255, 255); text-decoration-thickness: initial; text-decoration-style: initial; text-decoration-color: initial; display: inline !important; float: none;&quot;&gt;directory-size.sh&lt;/span&gt;" link="&lt;span style=&quot;color: rgb(23, 43, 77); font-family: SFMono-Medium, &amp;quot;SF Mono&amp;quot;, &amp;quot;Segoe UI Mono&amp;quot;, &amp;quot;Roboto Mono&amp;quot;, &amp;quot;Ubuntu Mono&amp;quot;, Menlo, Courier, monospace; font-size: 14px; font-style: normal; font-variant-ligatures: normal; font-variant-caps: normal; font-weight: 400; letter-spacing: normal; orphans: 2; text-align: start; text-indent: 0px; text-transform: none; widows: 2; word-spacing: 0px; -webkit-text-stroke-width: 0px; white-space: normal; background-color: rgb(255, 255, 255); text-decoration-thickness: initial; text-decoration-style: initial; text-decoration-color: initial; display: inline !important; float: none;&quot;&gt;directory-size.sh&lt;/span&gt;" id="WQhL-T7OeGWusMz7-_pZ-70">
          <mxCell style="text;whiteSpace=wrap;html=1;" vertex="1" parent="1">
            <mxGeometry x="570" y="48" width="180" height="40" as="geometry" />
          </mxCell>
        </UserObject>
        <mxCell id="WQhL-T7OeGWusMz7-_pZ-71" value="" style="endArrow=open;endFill=1;endSize=12;html=1;rounded=0;flowAnimation=1;fillColor=#dae8fc;strokeColor=#6c8ebf;" edge="1" parent="1">
          <mxGeometry width="160" relative="1" as="geometry">
            <mxPoint x="490" y="62" as="sourcePoint" />
            <mxPoint x="290" y="120" as="targetPoint" />
            <Array as="points">
              <mxPoint x="290" y="62" />
            </Array>
          </mxGeometry>
        </mxCell>
      </root>
    </mxGraphModel>
  </diagram>
</mxfile>
